Verenigde Staten
Animatie / Avontuur
103 minuten

geregisseerd door Lee Unkrich
met de stemmen van Tom Hanks, Tim Allen en Joan Cusack

Wanneer Andy gaat studeren en op kamers gaat, komen Woody, Buzz en de rest van hun speelgoedvrienden bij dagopvang Sunnyside terecht. Dit lijkt in eerste instantie een gezellige plek, onder leiding van de vriendelijke speelgoedbeer Lotso. Maar het dagverblijf blijkt helemaal niet zo prettig en dus willen Woody en de rest zo snel mogelijk weg. Maar het schijnt nog niet zo eenvoudig te zijn om het dagverblijf te verlaten.
 
http://www.imdb.com/title/tt0435761/
 
http://www.moviemeter.nl/film/49471

Nederlands gesproken.

General
Complete name                    : Toy Story 3-AC3-XviD-DVDRip[Ned]2010 REPOST 2Lions-Team\Toy Story 3-AC3-XviD-DVDRip[Ned]2010 REPOST 2Lions-Team.avi
Format                           : AVI
Format/Info                      : Audio Video Interleave
File size                        : 1.36 GiB
Duration                         : 1h 38mn
Overall bit rate                 : 1 983 Kbps
Writing application              : VirtualDubMod 1.5.4.1 (build 2178/release)
Writing library                  : VirtualDubMod build 2178/release

Video
ID                               : 0
Format                           : MPEG-4 Visual
Format profile                   : Simple@L3
Format settings, BVOP            : No
Format settings, QPel            : No
Format settings, GMC             : No warppoints
Format settings, Matrix          : Default (H.263)
Codec ID                         : XVID
Codec ID/Hint                    : XviD
Duration                         : 1h 38mn
Bit rate                         : 1 589 Kbps
Width                            : 720 pixels
Height                           : 400 pixels
Display aspect ratio             : 16:9
Frame rate                       : 25.000 fps
Color space                      : YUV
Chroma subsampling               : 4:2:0
Bit depth                        : 8 bits
Scan type                        : Progressive
Bits/(Pixel*Frame)               : 0.221
Stream size                      : 1.09 GiB (80%)
Writing library                  : XviD 1.1.2 (UTC 2006-11-01)

Audio
ID                               : 1
Format                           : AC-3
Format/Info                      : Audio Coding 3
Mode extension                   : CM (complete main)
Codec ID                         : 2000
Duration                         : 1h 38mn
Bit rate mode                    : Constant
Bit rate                         : 384 Kbps
Channel(s)                       : 6 channels
Channel positions                : Front: L C R, Side: L R, LFE
Sampling rate                    : 48.0 KHz
Bit depth                        : 16 bits
Stream size                      : 270 MiB (19%)
Alignment                        : Split accross interleaves
Interleave, duration             : 40 ms (1.00 video frame)
Interleave, preload duration     : 500 ms

Met dank aan D3LUX3 voor de bron.

Brought to you by Gollum

Dit is een REPOST! De vorige versie bevatte dubbele fragmenten, dat is nu opgelost.

Excuses voor het ongemak.

DON T HIT AND RUN Niet gelijk afhaken als de FILM binnen is blijf seeden. 

Don`t quit after you finished the download, but keep seeding

There are fake torrents from uploaders who use our team name.
Those are not ours, or members from our team.
We 2Lions-Team are not responsible for the fake posts on our name

Wij 2Lions-Team zijn niet verantwoordelijk voor die zieke FAKE posten die op onze naam worden gedaan

Please check our site !!!

to the fakers , get a life !!!